<svg xmlns="http://www.w3.org/2000/svg" viewBox="0 0 580 1806" width="580" height="1806">
<style>text { font-family: -apple-system, BlinkMacSystemFont, "Segoe UI", sans-serif; }</style>
<rect width="580" height="1806" fill="white"/>
<rect x="30" y="15" width="16" height="16" rx="3" fill="#22C55E"/>
<text x="52" y="28" font-size="12" fill="#374151">高频</text>
<rect x="110" y="15" width="16" height="16" rx="3" fill="#F59E0B"/>
<text x="132" y="28" font-size="12" fill="#374151">中频</text>
<rect x="190" y="15" width="16" height="16" rx="3" fill="#9CA3AF"/>
<text x="212" y="28" font-size="12" fill="#374151">低频</text>
<rect x="270" y="15" width="16" height="16" rx="3" fill="#EF4444"/>
<text x="292" y="28" font-size="12" fill="#374151">高风险</text>
<rect x="350" y="15" width="16" height="16" rx="3" fill="#F97316"/>
<text x="372" y="28" font-size="12" fill="#374151">冲突</text>
<rect x="30" y="509" width="160" height="40" rx="6" fill="#3B82F6"/>
<text x="110" y="534" text-anchor="middle" font-size="13" font-weight="bold" fill="white">职场人士</text>
<path d="M190 529 C220 529 230 84 260 84" stroke="#CBD5E1" fill="none" stroke-width="1.5"/>
<rect x="260" y="70" width="260" height="28" rx="4" fill="#22C55E"/>
<text x="268" y="88" font-size="11" fill="white">T001 选择场景并开始对话</text>
<polygon points="484,74 489,84 479,84" fill="#F97316"/>
<path d="M190 529 C220 529 230 118 260 118" stroke="#CBD5E1" fill="none" stroke-width="1.5"/>
<rect x="260" y="104" width="260" height="28" rx="4" fill="#22C55E"/>
<text x="268" y="122" font-size="11" fill="white">T002 进行AI场景对话</text>
<path d="M190 529 C220 529 230 152 260 152" stroke="#CBD5E1" fill="none" stroke-width="1.5"/>
<rect x="260" y="138" width="260" height="28" rx="4" fill="#22C55E"/>
<text x="268" y="156" font-size="11" fill="white">T003 查看对话报告</text>
<path d="M190 529 C220 529 230 186 260 186" stroke="#CBD5E1" fill="none" stroke-width="1.5"/>
<rect x="260" y="172" width="260" height="28" rx="4" fill="#F59E0B"/>
<text x="268" y="190" font-size="11" fill="white">T004 进行自由对话</text>
<polygon points="484,176 489,186 479,186" fill="#F97316"/>
<path d="M190 529 C220 529 230 220 260 220" stroke="#CBD5E1" fill="none" stroke-width="1.5"/>
<rect x="260" y="206" width="260" height="28" rx="4" fill="#22C55E"/>
<text x="268" y="224" font-size="11" fill="white">T005 对话中接受实时发音纠正</text>
<path d="M190 529 C220 529 230 254 260 254" stroke="#CBD5E1" fill="none" stroke-width="1.5"/>
<rect x="260" y="240" width="260" height="28" rx="4" fill="#F59E0B"/>
<text x="268" y="258" font-size="11" fill="white">T006 查看发音详细报告</text>
<path d="M190 529 C220 529 230 288 260 288" stroke="#CBD5E1" fill="none" stroke-width="1.5"/>
<rect x="260" y="274" width="260" height="28" rx="4" fill="#22C55E"/>
<text x="268" y="292" font-size="11" fill="white">T007 进行记忆曲线复习</text>
<path d="M190 529 C220 529 230 322 260 322" stroke="#CBD5E1" fill="none" stroke-width="1.5"/>
<rect x="260" y="308" width="260" height="28" rx="4" fill="#F59E0B"/>
<text x="268" y="326" font-size="11" fill="white">T008 查看词汇本</text>
<path d="M190 529 C220 529 230 356 260 356" stroke="#CBD5E1" fill="none" stroke-width="1.5"/>
<rect x="260" y="342" width="260" height="28" rx="4" fill="#22C55E"/>
<text x="268" y="360" font-size="11" fill="white">T013 查看和维护学习连胜</text>
<polygon points="484,346 489,356 479,356" fill="#F97316"/>
<path d="M190 529 C220 529 230 390 260 390" stroke="#CBD5E1" fill="none" stroke-width="1.5"/>
<rect x="260" y="376" width="260" height="28" rx="4" fill="#F59E0B"/>
<text x="268" y="394" font-size="11" fill="white">T014 查看排行榜</text>
<path d="M190 529 C220 529 230 424 260 424" stroke="#CBD5E1" fill="none" stroke-width="1.5"/>
<rect x="260" y="410" width="260" height="28" rx="4" fill="#F59E0B"/>
<text x="268" y="428" font-size="11" fill="white">T015 查看和使用积分</text>
<polygon points="484,414 489,424 479,424" fill="#F97316"/>
<path d="M190 529 C220 529 230 458 260 458" stroke="#CBD5E1" fill="none" stroke-width="1.5"/>
<rect x="260" y="444" width="260" height="28" rx="4" fill="#9CA3AF"/>
<text x="268" y="462" font-size="11" fill="white">T016 分享学习成果到社交媒体</text>
<path d="M190 529 C220 529 230 492 260 492" stroke="#CBD5E1" fill="none" stroke-width="1.5"/>
<rect x="260" y="478" width="260" height="28" rx="4" fill="#F59E0B"/>
<text x="268" y="496" font-size="11" fill="white">T017 查看个人学习档案</text>
<path d="M190 529 C220 529 230 526 260 526" stroke="#CBD5E1" fill="none" stroke-width="1.5"/>
<rect x="260" y="512" width="260" height="28" rx="4" fill="#F59E0B"/>
<text x="268" y="530" font-size="11" fill="white">T018 查看学习统计报告</text>
<path d="M190 529 C220 529 230 560 260 560" stroke="#CBD5E1" fill="none" stroke-width="1.5"/>
<rect x="260" y="546" width="260" height="28" rx="4" fill="#9CA3AF"/>
<text x="268" y="564" font-size="11" fill="white">T019 设置个人角色偏好</text>
<path d="M190 529 C220 529 230 594 260 594" stroke="#CBD5E1" fill="none" stroke-width="1.5"/>
<rect x="260" y="580" width="260" height="28" rx="4" fill="#22C55E"/>
<text x="268" y="598" font-size="11" fill="white">T020 接受个性化场景推荐</text>
<path d="M190 529 C220 529 230 628 260 628" stroke="#CBD5E1" fill="none" stroke-width="1.5"/>
<rect x="260" y="614" width="260" height="28" rx="4" fill="#9CA3AF"/>
<text x="268" y="632" font-size="11" fill="white">T022 查看订阅方案并购买</text>
<circle cx="500" cy="623" r="5" fill="#EF4444"/>
<text x="500" y="627" text-anchor="middle" font-size="8" fill="white">!</text>
<path d="M190 529 C220 529 230 662 260 662" stroke="#CBD5E1" fill="none" stroke-width="1.5"/>
<rect x="260" y="648" width="260" height="28" rx="4" fill="#9CA3AF"/>
<text x="268" y="666" font-size="11" fill="white">T023 管理订阅状态</text>
<polygon points="484,652 489,662 479,662" fill="#F97316"/>
<path d="M190 529 C220 529 230 696 260 696" stroke="#CBD5E1" fill="none" stroke-width="1.5"/>
<rect x="260" y="682" width="260" height="28" rx="4" fill="#9CA3AF"/>
<text x="268" y="700" font-size="11" fill="white">T024 购买场景包</text>
<path d="M190 529 C220 529 230 730 260 730" stroke="#CBD5E1" fill="none" stroke-width="1.5"/>
<rect x="260" y="716" width="260" height="28" rx="4" fill="#9CA3AF"/>
<text x="268" y="734" font-size="11" fill="white">T038 注册账户</text>
<path d="M190 529 C220 529 230 764 260 764" stroke="#CBD5E1" fill="none" stroke-width="1.5"/>
<rect x="260" y="750" width="260" height="28" rx="4" fill="#22C55E"/>
<text x="268" y="768" font-size="11" fill="white">T039 登录账户</text>
<path d="M190 529 C220 529 230 798 260 798" stroke="#CBD5E1" fill="none" stroke-width="1.5"/>
<rect x="260" y="784" width="260" height="28" rx="4" fill="#9CA3AF"/>
<text x="268" y="802" font-size="11" fill="white">T040 修改个人设置</text>
<path d="M190 529 C220 529 230 832 260 832" stroke="#CBD5E1" fill="none" stroke-width="1.5"/>
<rect x="260" y="818" width="260" height="28" rx="4" fill="#9CA3AF"/>
<text x="268" y="836" font-size="11" fill="white">T041 重置密码</text>
<path d="M190 529 C220 529 230 866 260 866" stroke="#CBD5E1" fill="none" stroke-width="1.5"/>
<rect x="260" y="852" width="260" height="28" rx="4" fill="#9CA3AF"/>
<text x="268" y="870" font-size="11" fill="white">T042 注销账户</text>
<circle cx="500" cy="861" r="5" fill="#EF4444"/>
<text x="500" y="865" text-anchor="middle" font-size="8" fill="white">!</text>
<path d="M190 529 C220 529 230 900 260 900" stroke="#CBD5E1" fill="none" stroke-width="1.5"/>
<rect x="260" y="886" width="260" height="28" rx="4" fill="#9CA3AF"/>
<text x="268" y="904" font-size="11" fill="white">T043 完成新手引导</text>
<path d="M190 529 C220 529 230 934 260 934" stroke="#CBD5E1" fill="none" stroke-width="1.5"/>
<rect x="260" y="920" width="260" height="28" rx="4" fill="#22C55E"/>
<text x="268" y="938" font-size="11" fill="white">T044 接收学习提醒推送</text>
<path d="M190 529 C220 529 230 968 260 968" stroke="#CBD5E1" fill="none" stroke-width="1.5"/>
<rect x="260" y="954" width="260" height="28" rx="4" fill="#9CA3AF"/>
<text x="268" y="972" font-size="11" fill="white">T045 提交意见与投诉</text>
<polygon points="484,958 489,968 479,968" fill="#F97316"/>
<rect x="30" y="1008" width="160" height="40" rx="6" fill="#3B82F6"/>
<text x="110" y="1033" text-anchor="middle" font-size="13" font-weight="bold" fill="white">英语爱好者/旅行者</text>
<rect x="30" y="1068" width="160" height="40" rx="6" fill="#3B82F6"/>
<text x="110" y="1093" text-anchor="middle" font-size="13" font-weight="bold" fill="white">新移民</text>
<path d="M190 1088 C220 1088 230 1082 260 1082" stroke="#CBD5E1" fill="none" stroke-width="1.5"/>
<rect x="260" y="1068" width="260" height="28" rx="4" fill="#F59E0B"/>
<text x="268" y="1086" font-size="11" fill="white">T021 使用紧急场景速学</text>
<polygon points="484,1072 489,1082 479,1082" fill="#F97316"/>
<rect x="30" y="1176" width="160" height="40" rx="6" fill="#3B82F6"/>
<text x="110" y="1201" text-anchor="middle" font-size="13" font-weight="bold" fill="white">内容运营</text>
<path d="M190 1196 C220 1196 230 1142 260 1142" stroke="#CBD5E1" fill="none" stroke-width="1.5"/>
<rect x="260" y="1128" width="260" height="28" rx="4" fill="#22C55E"/>
<text x="268" y="1146" font-size="11" fill="white">T009 创建场景对话脚本</text>
<path d="M190 1196 C220 1196 230 1176 260 1176" stroke="#CBD5E1" fill="none" stroke-width="1.5"/>
<rect x="260" y="1162" width="260" height="28" rx="4" fill="#22C55E"/>
<text x="268" y="1180" font-size="11" fill="white">T010 审核场景内容</text>
<path d="M190 1196 C220 1196 230 1210 260 1210" stroke="#CBD5E1" fill="none" stroke-width="1.5"/>
<rect x="260" y="1196" width="260" height="28" rx="4" fill="#F59E0B"/>
<text x="268" y="1214" font-size="11" fill="white">T011 管理场景包的上下架</text>
<path d="M190 1196 C220 1196 230 1244 260 1244" stroke="#CBD5E1" fill="none" stroke-width="1.5"/>
<rect x="260" y="1230" width="260" height="28" rx="4" fill="#F59E0B"/>
<text x="268" y="1248" font-size="11" fill="white">T012 标定场景关键词和标签</text>
<rect x="30" y="1332" width="160" height="40" rx="6" fill="#3B82F6"/>
<text x="110" y="1357" text-anchor="middle" font-size="13" font-weight="bold" fill="white">AI 训练师</text>
<path d="M190 1352 C220 1352 230 1298 260 1298" stroke="#CBD5E1" fill="none" stroke-width="1.5"/>
<rect x="260" y="1284" width="260" height="28" rx="4" fill="#22C55E"/>
<text x="268" y="1302" font-size="11" fill="white">T029 查看AI对话质量评分</text>
<path d="M190 1352 C220 1352 230 1332 260 1332" stroke="#CBD5E1" fill="none" stroke-width="1.5"/>
<rect x="260" y="1318" width="260" height="28" rx="4" fill="#F59E0B"/>
<text x="268" y="1336" font-size="11" fill="white">T030 标注异常AI对话</text>
<path d="M190 1352 C220 1352 230 1366 260 1366" stroke="#CBD5E1" fill="none" stroke-width="1.5"/>
<rect x="260" y="1352" width="260" height="28" rx="4" fill="#F59E0B"/>
<text x="268" y="1370" font-size="11" fill="white">T031 管理对话Prompt模板</text>
<circle cx="500" cy="1361" r="5" fill="#EF4444"/>
<text x="500" y="1365" text-anchor="middle" font-size="8" fill="white">!</text>
<path d="M190 1352 C220 1352 230 1400 260 1400" stroke="#CBD5E1" fill="none" stroke-width="1.5"/>
<rect x="260" y="1386" width="260" height="28" rx="4" fill="#9CA3AF"/>
<text x="268" y="1404" font-size="11" fill="white">T032 调整发音评估参数</text>
<circle cx="500" cy="1395" r="5" fill="#EF4444"/>
<text x="500" y="1399" text-anchor="middle" font-size="8" fill="white">!</text>
<rect x="30" y="1488" width="160" height="40" rx="6" fill="#3B82F6"/>
<text x="110" y="1513" text-anchor="middle" font-size="13" font-weight="bold" fill="white">数据运营</text>
<path d="M190 1508 C220 1508 230 1454 260 1454" stroke="#CBD5E1" fill="none" stroke-width="1.5"/>
<rect x="260" y="1440" width="260" height="28" rx="4" fill="#22C55E"/>
<text x="268" y="1458" font-size="11" fill="white">T025 查看关键指标看板</text>
<path d="M190 1508 C220 1508 230 1488 260 1488" stroke="#CBD5E1" fill="none" stroke-width="1.5"/>
<rect x="260" y="1474" width="260" height="28" rx="4" fill="#F59E0B"/>
<text x="268" y="1492" font-size="11" fill="white">T026 分析用户学习行为</text>
<path d="M190 1508 C220 1508 230 1522 260 1522" stroke="#CBD5E1" fill="none" stroke-width="1.5"/>
<rect x="260" y="1508" width="260" height="28" rx="4" fill="#F59E0B"/>
<text x="268" y="1526" font-size="11" fill="white">T027 管理A/B测试</text>
<path d="M190 1508 C220 1508 230 1556 260 1556" stroke="#CBD5E1" fill="none" stroke-width="1.5"/>
<rect x="260" y="1542" width="260" height="28" rx="4" fill="#F59E0B"/>
<text x="268" y="1560" font-size="11" fill="white">T028 生成运营报告</text>
<rect x="30" y="1661" width="160" height="40" rx="6" fill="#3B82F6"/>
<text x="110" y="1686" text-anchor="middle" font-size="13" font-weight="bold" fill="white">系统管理员</text>
<path d="M190 1681 C220 1681 230 1610 260 1610" stroke="#CBD5E1" fill="none" stroke-width="1.5"/>
<rect x="260" y="1596" width="260" height="28" rx="4" fill="#22C55E"/>
<text x="268" y="1614" font-size="11" fill="white">T033 管理用户账户</text>
<path d="M190 1681 C220 1681 230 1644 260 1644" stroke="#CBD5E1" fill="none" stroke-width="1.5"/>
<rect x="260" y="1630" width="260" height="28" rx="4" fill="#F59E0B"/>
<text x="268" y="1648" font-size="11" fill="white">T034 管理订阅和退款</text>
<circle cx="500" cy="1639" r="5" fill="#EF4444"/>
<text x="500" y="1643" text-anchor="middle" font-size="8" fill="white">!</text>
<polygon points="484,1634 489,1644 479,1644" fill="#F97316"/>
<path d="M190 1681 C220 1681 230 1678 260 1678" stroke="#CBD5E1" fill="none" stroke-width="1.5"/>
<rect x="260" y="1664" width="260" height="28" rx="4" fill="#9CA3AF"/>
<text x="268" y="1682" font-size="11" fill="white">T035 配置系统参数</text>
<circle cx="500" cy="1673" r="5" fill="#EF4444"/>
<text x="500" y="1677" text-anchor="middle" font-size="8" fill="white">!</text>
<path d="M190 1681 C220 1681 230 1712 260 1712" stroke="#CBD5E1" fill="none" stroke-width="1.5"/>
<rect x="260" y="1698" width="260" height="28" rx="4" fill="#9CA3AF"/>
<text x="268" y="1716" font-size="11" fill="white">T036 管理权限和角色</text>
<circle cx="500" cy="1707" r="5" fill="#EF4444"/>
<text x="500" y="1711" text-anchor="middle" font-size="8" fill="white">!</text>
<path d="M190 1681 C220 1681 230 1746 260 1746" stroke="#CBD5E1" fill="none" stroke-width="1.5"/>
<rect x="260" y="1732" width="260" height="28" rx="4" fill="#F59E0B"/>
<text x="268" y="1750" font-size="11" fill="white">T037 处理用户投诉</text>
</svg>